<svg width="260" height="48" viewBox="0 0 260 48" fill="none" xmlns="http://www.w3.org/2000/svg">
<mask id="path-1-inside-1_13_965" fill="white">
<path d="M0 0H260V48H0V0Z"/>
</mask>
<path d="M0 0H260V48H0V0Z" fill="#F2F4F8"/>
<path d="M260 47H0V49H260V47Z" fill="#C1C7CD" mask="url(#path-1-inside-1_13_965)"/>
<path d="M26.5 28.5C27.2879 28.5 28.0682 28.3448 28.7961 28.0433C29.5241 27.7418 30.1855 27.2998 30.7427 26.7427C31.2998 26.1855 31.7418 25.5241 32.0433 24.7961C32.3448 24.0682 32.5 23.2879 32.5 22.5C32.5 21.7121 32.3448 20.9319 32.0433 20.2039C31.7418 19.476 31.2998 18.8145 30.7427 18.2574C30.1855 17.7002 29.5241 17.2583 28.7961 16.9567C28.0682 16.6552 27.2879 16.5 26.5 16.5C24.9087 16.5 23.3826 17.1322 22.2574 18.2574C21.1322 19.3826 20.5 20.9087 20.5 22.5C20.5 24.0913 21.1322 25.6174 22.2574 26.7427C23.3826 27.8679 24.9087 28.5 26.5 28.5V28.5ZM32.82 27.406L36.4 30.986C36.4955 31.0783 36.5716 31.1887 36.6239 31.3108C36.6762 31.4328 36.7037 31.564 36.7048 31.6968C36.7058 31.8296 36.6804 31.9613 36.63 32.0841C36.5797 32.207 36.5053 32.3186 36.4114 32.4124C36.3174 32.5062 36.2057 32.5804 36.0828 32.6306C35.9599 32.6808 35.8282 32.706 35.6954 32.7048C35.5626 32.7035 35.4314 32.6758 35.3095 32.6233C35.1875 32.5708 35.0772 32.4946 34.985 32.399L31.405 28.819C29.7975 30.0669 27.7748 30.6552 25.7488 30.4642C23.7227 30.2732 21.8456 29.3173 20.4996 27.7911C19.1535 26.2648 18.4397 24.283 18.5034 22.2489C18.5672 20.2149 19.4037 18.2816 20.8427 16.8427C22.2816 15.4037 24.2149 14.5672 26.2489 14.5034C28.283 14.4397 30.2648 15.1535 31.7911 16.4996C33.3173 17.8456 34.2732 19.7227 34.4642 21.7488C34.6552 23.7748 34.0669 25.7975 32.819 27.405L32.82 27.406Z" fill="#697077"/>
<path d="M55.3828 26.125C55.3828 25.8594 55.3411 25.625 55.2578 25.4219C55.1797 25.2135 55.0391 25.026 54.8359 24.8594C54.638 24.6927 54.362 24.5339 54.0078 24.3828C53.6589 24.2318 53.2161 24.0781 52.6797 23.9219C52.1172 23.7552 51.6094 23.5703 51.1562 23.3672C50.7031 23.1589 50.3151 22.9219 49.9922 22.6562C49.6693 22.3906 49.4219 22.0859 49.25 21.7422C49.0781 21.3984 48.9922 21.0052 48.9922 20.5625C48.9922 20.1198 49.0833 19.7109 49.2656 19.3359C49.4479 18.9609 49.7083 18.6354 50.0469 18.3594C50.3906 18.0781 50.7995 17.8594 51.2734 17.7031C51.7474 17.5469 52.276 17.4688 52.8594 17.4688C53.7135 17.4688 54.4375 17.6328 55.0312 17.9609C55.6302 18.2839 56.0859 18.7083 56.3984 19.2344C56.7109 19.7552 56.8672 20.3125 56.8672 20.9062H55.3672C55.3672 20.4792 55.276 20.1016 55.0938 19.7734C54.9115 19.4401 54.6354 19.1797 54.2656 18.9922C53.8958 18.7995 53.4271 18.7031 52.8594 18.7031C52.3229 18.7031 51.8802 18.7839 51.5312 18.9453C51.1823 19.1068 50.9219 19.3255 50.75 19.6016C50.5833 19.8776 50.5 20.1927 50.5 20.5469C50.5 20.7865 50.5495 21.0052 50.6484 21.2031C50.7526 21.3958 50.9115 21.5755 51.125 21.7422C51.3438 21.9089 51.6198 22.0625 51.9531 22.2031C52.2917 22.3438 52.6953 22.4792 53.1641 22.6094C53.8099 22.7917 54.3672 22.9948 54.8359 23.2188C55.3047 23.4427 55.6901 23.6953 55.9922 23.9766C56.2995 24.2526 56.526 24.5677 56.6719 24.9219C56.8229 25.2708 56.8984 25.6667 56.8984 26.1094C56.8984 26.5729 56.8047 26.9922 56.6172 27.3672C56.4297 27.7422 56.1615 28.0625 55.8125 28.3281C55.4635 28.5938 55.0443 28.7995 54.5547 28.9453C54.0703 29.0859 53.5286 29.1562 52.9297 29.1562C52.4036 29.1562 51.8854 29.0833 51.375 28.9375C50.8698 28.7917 50.4089 28.5729 49.9922 28.2812C49.5807 27.9896 49.25 27.6302 49 27.2031C48.7552 26.7708 48.6328 26.2708 48.6328 25.7031H50.1328C50.1328 26.0938 50.2083 26.4297 50.3594 26.7109C50.5104 26.987 50.7161 27.2161 50.9766 27.3984C51.2422 27.5807 51.5417 27.7161 51.875 27.8047C52.2135 27.888 52.5651 27.9297 52.9297 27.9297C53.4557 27.9297 53.901 27.8568 54.2656 27.7109C54.6302 27.5651 54.9062 27.3568 55.0938 27.0859C55.2865 26.8151 55.3828 26.4948 55.3828 26.125ZM62.1094 29.1562C61.5208 29.1562 60.987 29.0573 60.5078 28.8594C60.0339 28.6562 59.625 28.3724 59.2812 28.0078C58.9427 27.6432 58.6823 27.2109 58.5 26.7109C58.3177 26.2109 58.2266 25.6641 58.2266 25.0703V24.7422C58.2266 24.0547 58.3281 23.4427 58.5312 22.9062C58.7344 22.3646 59.0104 21.9062 59.3594 21.5312C59.7083 21.1562 60.1042 20.8724 60.5469 20.6797C60.9896 20.487 61.4479 20.3906 61.9219 20.3906C62.526 20.3906 63.0469 20.4948 63.4844 20.7031C63.9271 20.9115 64.2891 21.2031 64.5703 21.5781C64.8516 21.9479 65.0599 22.3854 65.1953 22.8906C65.3307 23.3906 65.3984 23.9375 65.3984 24.5312V25.1797H59.0859V24H63.9531V23.8906C63.9323 23.5156 63.8542 23.151 63.7188 22.7969C63.5885 22.4427 63.3802 22.151 63.0938 21.9219C62.8073 21.6927 62.4167 21.5781 61.9219 21.5781C61.5938 21.5781 61.2917 21.6484 61.0156 21.7891C60.7396 21.9245 60.5026 22.1276 60.3047 22.3984C60.1068 22.6693 59.9531 23 59.8438 23.3906C59.7344 23.7812 59.6797 24.2318 59.6797 24.7422V25.0703C59.6797 25.4714 59.7344 25.849 59.8438 26.2031C59.9583 26.5521 60.1224 26.8594 60.3359 27.125C60.5547 27.3906 60.8177 27.599 61.125 27.75C61.4375 27.901 61.7917 27.9766 62.1875 27.9766C62.6979 27.9766 63.1302 27.8724 63.4844 27.6641C63.8385 27.4557 64.1484 27.1771 64.4141 26.8281L65.2891 27.5234C65.1068 27.7995 64.875 28.0625 64.5938 28.3125C64.3125 28.5625 63.9661 28.7656 63.5547 28.9219C63.1484 29.0781 62.6667 29.1562 62.1094 29.1562ZM72.0703 27.5547V23.2031C72.0703 22.8698 72.0026 22.5807 71.8672 22.3359C71.737 22.0859 71.5391 21.8932 71.2734 21.7578C71.0078 21.6224 70.6797 21.5547 70.2891 21.5547C69.9245 21.5547 69.6042 21.6172 69.3281 21.7422C69.0573 21.8672 68.8438 22.0312 68.6875 22.2344C68.5365 22.4375 68.4609 22.6562 68.4609 22.8906H67.0156C67.0156 22.5885 67.0938 22.2891 67.25 21.9922C67.4062 21.6953 67.6302 21.4271 67.9219 21.1875C68.2188 20.9427 68.5729 20.75 68.9844 20.6094C69.401 20.4635 69.8646 20.3906 70.375 20.3906C70.9896 20.3906 71.5312 20.4948 72 20.7031C72.474 20.9115 72.8438 21.2266 73.1094 21.6484C73.3802 22.0651 73.5156 22.5885 73.5156 23.2188V27.1562C73.5156 27.4375 73.5391 27.737 73.5859 28.0547C73.638 28.3724 73.7135 28.6458 73.8125 28.875V29H72.3047C72.2318 28.8333 72.1745 28.612 72.1328 28.3359C72.0911 28.0547 72.0703 27.7943 72.0703 27.5547ZM72.3203 23.875L72.3359 24.8906H70.875C70.4635 24.8906 70.0964 24.9245 69.7734 24.9922C69.4505 25.0547 69.1797 25.151 68.9609 25.2812C68.7422 25.4115 68.5755 25.5755 68.4609 25.7734C68.3464 25.9661 68.2891 26.1927 68.2891 26.4531C68.2891 26.7188 68.349 26.9609 68.4688 27.1797C68.5885 27.3984 68.7682 27.5729 69.0078 27.7031C69.2526 27.8281 69.5521 27.8906 69.9062 27.8906C70.349 27.8906 70.7396 27.7969 71.0781 27.6094C71.4167 27.4219 71.6849 27.1927 71.8828 26.9219C72.0859 26.651 72.1953 26.388 72.2109 26.1328L72.8281 26.8281C72.7917 27.0469 72.6927 27.2891 72.5312 27.5547C72.3698 27.8203 72.1536 28.0755 71.8828 28.3203C71.6172 28.5599 71.2995 28.7604 70.9297 28.9219C70.5651 29.0781 70.1536 29.1562 69.6953 29.1562C69.1224 29.1562 68.6198 29.0443 68.1875 28.8203C67.7604 28.5964 67.4271 28.2969 67.1875 27.9219C66.9531 27.5417 66.8359 27.1172 66.8359 26.6484C66.8359 26.1953 66.9245 25.7969 67.1016 25.4531C67.2786 25.1042 67.5339 24.8151 67.8672 24.5859C68.2005 24.3516 68.6016 24.1745 69.0703 24.0547C69.5391 23.9349 70.0625 23.875 70.6406 23.875H72.3203ZM77.2344 21.875V29H75.7891V20.5469H77.1953L77.2344 21.875ZM79.875 20.5L79.8672 21.8438C79.7474 21.8177 79.6328 21.8021 79.5234 21.7969C79.4193 21.7865 79.2995 21.7812 79.1641 21.7812C78.8307 21.7812 78.5365 21.8333 78.2812 21.9375C78.026 22.0417 77.8099 22.1875 77.6328 22.375C77.4557 22.5625 77.3151 22.7865 77.2109 23.0469C77.112 23.3021 77.0469 23.5833 77.0156 23.8906L76.6094 24.125C76.6094 23.6146 76.6589 23.1354 76.7578 22.6875C76.862 22.2396 77.0208 21.8438 77.2344 21.5C77.4479 21.151 77.7188 20.8802 78.0469 20.6875C78.3802 20.4896 78.776 20.3906 79.2344 20.3906C79.3385 20.3906 79.4583 20.4036 79.5938 20.4297C79.7292 20.4505 79.8229 20.474 79.875 20.5ZM84.4375 27.9688C84.7812 27.9688 85.099 27.8984 85.3906 27.7578C85.6823 27.6172 85.9219 27.4245 86.1094 27.1797C86.2969 26.9297 86.4036 26.6458 86.4297 26.3281H87.8047C87.7786 26.8281 87.6094 27.2943 87.2969 27.7266C86.9896 28.1536 86.5859 28.5 86.0859 28.7656C85.5859 29.026 85.0365 29.1562 84.4375 29.1562C83.8021 29.1562 83.2474 29.0443 82.7734 28.8203C82.3047 28.5964 81.9141 28.2891 81.6016 27.8984C81.2943 27.5078 81.0625 27.0599 80.9062 26.5547C80.7552 26.0443 80.6797 25.5052 80.6797 24.9375V24.6094C80.6797 24.0417 80.7552 23.5052 80.9062 23C81.0625 22.4896 81.2943 22.0391 81.6016 21.6484C81.9141 21.2578 82.3047 20.9505 82.7734 20.7266C83.2474 20.5026 83.8021 20.3906 84.4375 20.3906C85.099 20.3906 85.6771 20.526 86.1719 20.7969C86.6667 21.0625 87.0547 21.4271 87.3359 21.8906C87.6224 22.349 87.7786 22.8698 87.8047 23.4531H86.4297C86.4036 23.1042 86.3047 22.7891 86.1328 22.5078C85.9661 22.2266 85.737 22.0026 85.4453 21.8359C85.1589 21.6641 84.8229 21.5781 84.4375 21.5781C83.9948 21.5781 83.6224 21.6667 83.3203 21.8438C83.0234 22.0156 82.7865 22.25 82.6094 22.5469C82.4375 22.8385 82.3125 23.1641 82.2344 23.5234C82.1615 23.8776 82.125 24.2396 82.125 24.6094V24.9375C82.125 25.3073 82.1615 25.6719 82.2344 26.0312C82.3073 26.3906 82.4297 26.7161 82.6016 27.0078C82.7786 27.2995 83.0156 27.5339 83.3125 27.7109C83.6146 27.8828 83.9896 27.9688 84.4375 27.9688ZM90.875 17V29H89.4297V17H90.875ZM90.5312 24.4531L89.9297 24.4297C89.9349 23.8516 90.0208 23.3177 90.1875 22.8281C90.3542 22.3333 90.5885 21.9036 90.8906 21.5391C91.1927 21.1745 91.5521 20.8932 91.9688 20.6953C92.3906 20.4922 92.8568 20.3906 93.3672 20.3906C93.7839 20.3906 94.1589 20.4479 94.4922 20.5625C94.8255 20.6719 95.1094 20.849 95.3438 21.0938C95.5833 21.3385 95.7656 21.6562 95.8906 22.0469C96.0156 22.4323 96.0781 22.9036 96.0781 23.4609V29H94.625V23.4453C94.625 23.0026 94.5599 22.6484 94.4297 22.3828C94.2995 22.112 94.1094 21.9167 93.8594 21.7969C93.6094 21.6719 93.3021 21.6094 92.9375 21.6094C92.5781 21.6094 92.25 21.6849 91.9531 21.8359C91.6615 21.987 91.4089 22.1953 91.1953 22.4609C90.987 22.7266 90.8229 23.0312 90.7031 23.375C90.5885 23.7135 90.5312 24.0729 90.5312 24.4531ZM104.367 29H102.922V19.6562C102.922 19.0469 103.031 18.5339 103.25 18.1172C103.474 17.6953 103.794 17.3776 104.211 17.1641C104.628 16.9453 105.122 16.8359 105.695 16.8359C105.862 16.8359 106.029 16.8464 106.195 16.8672C106.367 16.888 106.534 16.9193 106.695 16.9609L106.617 18.1406C106.508 18.1146 106.383 18.0964 106.242 18.0859C106.107 18.0755 105.971 18.0703 105.836 18.0703C105.529 18.0703 105.263 18.1328 105.039 18.2578C104.82 18.3776 104.654 18.5547 104.539 18.7891C104.424 19.0234 104.367 19.3125 104.367 19.6562V29ZM106.164 20.5469V21.6562H101.586V20.5469H106.164ZM107.391 24.8672V24.6875C107.391 24.0781 107.479 23.513 107.656 22.9922C107.833 22.4661 108.089 22.0104 108.422 21.625C108.755 21.2344 109.159 20.9323 109.633 20.7188C110.107 20.5 110.638 20.3906 111.227 20.3906C111.82 20.3906 112.354 20.5 112.828 20.7188C113.307 20.9323 113.714 21.2344 114.047 21.625C114.385 22.0104 114.643 22.4661 114.82 22.9922C114.997 23.513 115.086 24.0781 115.086 24.6875V24.8672C115.086 25.4766 114.997 26.0417 114.82 26.5625C114.643 27.0833 114.385 27.5391 114.047 27.9297C113.714 28.3151 113.31 28.6172 112.836 28.8359C112.367 29.0495 111.836 29.1562 111.242 29.1562C110.648 29.1562 110.115 29.0495 109.641 28.8359C109.167 28.6172 108.76 28.3151 108.422 27.9297C108.089 27.5391 107.833 27.0833 107.656 26.5625C107.479 26.0417 107.391 25.4766 107.391 24.8672ZM108.836 24.6875V24.8672C108.836 25.2891 108.885 25.6875 108.984 26.0625C109.083 26.4323 109.232 26.7604 109.43 27.0469C109.633 27.3333 109.885 27.5599 110.188 27.7266C110.49 27.888 110.841 27.9688 111.242 27.9688C111.638 27.9688 111.984 27.888 112.281 27.7266C112.583 27.5599 112.833 27.3333 113.031 27.0469C113.229 26.7604 113.378 26.4323 113.477 26.0625C113.581 25.6875 113.633 25.2891 113.633 24.8672V24.6875C113.633 24.2708 113.581 23.8776 113.477 23.5078C113.378 23.1328 113.227 22.8021 113.023 22.5156C112.826 22.224 112.576 21.9948 112.273 21.8281C111.977 21.6615 111.628 21.5781 111.227 21.5781C110.831 21.5781 110.482 21.6615 110.18 21.8281C109.883 21.9948 109.633 22.224 109.43 22.5156C109.232 22.8021 109.083 23.1328 108.984 23.5078C108.885 23.8776 108.836 24.2708 108.836 24.6875ZM118.344 21.875V29H116.898V20.5469H118.305L118.344 21.875ZM120.984 20.5L120.977 21.8438C120.857 21.8177 120.742 21.8021 120.633 21.7969C120.529 21.7865 120.409 21.7812 120.273 21.7812C119.94 21.7812 119.646 21.8333 119.391 21.9375C119.135 22.0417 118.919 22.1875 118.742 22.375C118.565 22.5625 118.424 22.7865 118.32 23.0469C118.221 23.3021 118.156 23.5833 118.125 23.8906L117.719 24.125C117.719 23.6146 117.768 23.1354 117.867 22.6875C117.971 22.2396 118.13 21.8438 118.344 21.5C118.557 21.151 118.828 20.8802 119.156 20.6875C119.49 20.4896 119.885 20.3906 120.344 20.3906C120.448 20.3906 120.568 20.4036 120.703 20.4297C120.839 20.4505 120.932 20.474 120.984 20.5ZM121.375 28.2344C121.375 27.9896 121.451 27.7839 121.602 27.6172C121.758 27.4453 121.982 27.3594 122.273 27.3594C122.565 27.3594 122.786 27.4453 122.938 27.6172C123.094 27.7839 123.172 27.9896 123.172 28.2344C123.172 28.474 123.094 28.6771 122.938 28.8438C122.786 29.0104 122.565 29.0938 122.273 29.0938C121.982 29.0938 121.758 29.0104 121.602 28.8438C121.451 28.6771 121.375 28.474 121.375 28.2344ZM125.594 28.2344C125.594 27.9896 125.669 27.7839 125.82 27.6172C125.977 27.4453 126.201 27.3594 126.492 27.3594C126.784 27.3594 127.005 27.4453 127.156 27.6172C127.312 27.7839 127.391 27.9896 127.391 28.2344C127.391 28.474 127.312 28.6771 127.156 28.8438C127.005 29.0104 126.784 29.0938 126.492 29.0938C126.201 29.0938 125.977 29.0104 125.82 28.8438C125.669 28.6771 125.594 28.474 125.594 28.2344ZM129.812 28.2344C129.812 27.9896 129.888 27.7839 130.039 27.6172C130.195 27.4453 130.419 27.3594 130.711 27.3594C131.003 27.3594 131.224 27.4453 131.375 27.6172C131.531 27.7839 131.609 27.9896 131.609 28.2344C131.609 28.474 131.531 28.6771 131.375 28.8438C131.224 29.0104 131.003 29.0938 130.711 29.0938C130.419 29.0938 130.195 29.0104 130.039 28.8438C129.888 28.6771 129.812 28.474 129.812 28.2344Z" fill="#697077"/>
</svg>
